{
  "accessors": [
    {
      "bufferView": 2,
      "componentType": 5126,
      "count": 40132,
      "max": [
        15.275188446044922,
        14.487258911132813,
        12.570581436157227
      ],
      "min": [
        -14.714473724365234,
        -15.502403259277344,
        -10.04918098449707
      ],
      "type": "VEC3"
    },
    {
      "bufferView": 2,
      "byteOffset": 481584,
      "componentType": 5126,
      "count": 40132,
      "type": "VEC3"
    },
    {
      "bufferView": 1,
      "componentType": 5126,
      "count": 40132,
      "type": "VEC2"
    },
    {
      "bufferView": 0,
      "componentType": 5125,
      "count": 49800,
      "type": "SCALAR"
    },
    {
      "bufferView": 2,
      "byteOffset": 963168,
      "componentType": 5126,
      "count": 46838,
      "max": [
        15.226727485656738,
        17.00115203857422,
        11.396865844726563
      ],
      "min": [
        -14.762928009033203,
        -12.988502502441406,
        -5.899313926696777
      ],
      "type": "VEC3"
    },
    {
      "bufferView": 2,
      "byteOffset": 1525224,
      "componentType": 5126,
      "count": 46838,
      "type": "VEC3"
    },
    {
      "bufferView": 1,
      "byteOffset": 321056,
      "componentType": 5126,
      "count": 46838,
      "type": "VEC2"
    },
    {
      "bufferView": 0,
      "byteOffset": 199200,
      "componentType": 5125,
      "count": 62184,
      "type": "SCALAR"
    },
    {
      "bufferView": 2,
      "byteOffset": 2087280,
      "componentType": 5126,
      "count": 65534,
      "max": [
        14.980097770690918,
        17.537845611572266,
        7.148830890655518
      ],
      "min": [
        -15.009562492370605,
        -12.451813697814941,
        -4.443270683288574
      ],
      "type": "VEC3"
    },
    {
      "bufferView": 2,
      "byteOffset": 2873688,
      "componentType": 5126,
      "count": 65534,
      "type": "VEC3"
    },
    {
      "bufferView": 1,
      "byteOffset": 695760,
      "componentType": 5126,
      "count": 65534,
      "type": "VEC2"
    },
    {
      "bufferView": 0,
      "byteOffset": 447936,
      "componentType": 5125,
      "count": 82161,
      "type": "SCALAR"
    },
    {
      "bufferView": 2,
      "byteOffset": 3660096,
      "componentType": 5126,
      "count": 15619,
      "max": [
        11.637742042541504,
        15.071206092834473,
        7.148830890655518
      ],
      "min": [
        -11.666911125183105,
        -1.7693402767181396,
        -1.8702166080474854
      ],
      "type": "VEC3"
    },
    {
      "bufferView": 2,
      "byteOffset": 3847524,
      "componentType": 5126,
      "count": 15619,
      "type": "VEC3"
    },
    {
      "bufferView": 1,
      "byteOffset": 1220032,
      "componentType": 5126,
      "count": 15619,
      "type": "VEC2"
    },
    {
      "bufferView": 0,
      "byteOffset": 776580,
      "componentType": 5125,
      "count": 23970,
      "type": "SCALAR"
    },
    {
      "bufferView": 2,
      "byteOffset": 4034952,
      "componentType": 5126,
      "count": 43423,
      "max": [
        14.794570922851563,
        14.805543899536133,
        5.156691551208496
      ],
      "min": [
        -15.195091247558594,
        -15.18411636352539,
        -4.9184699058532715
      ],
      "type": "VEC3"
    },
    {
      "bufferView": 2,
      "byteOffset": 4556028,
      "componentType": 5126,
      "count": 43423,
      "type": "VEC3"
    },
    {
      "bufferView": 1,
      "byteOffset": 1344984,
      "componentType": 5126,
      "count": 43423,
      "type": "VEC2"
    },
    {
      "bufferView": 0,
      "byteOffset": 872460,
      "componentType": 5125,
      "count": 55722,
      "type": "SCALAR"
    },
    {
      "bufferView": 2,
      "byteOffset": 5077104,
      "componentType": 5126,
      "count": 34897,
      "max": [
        15.134917259216309,
        14.187145233154297,
        4.168288707733154
      ],
      "min": [
        -14.854745864868164,
        -15.80251693725586,
        -4.200191974639893
      ],
      "type": "VEC3"
    },
    {
      "bufferView": 2,
      "byteOffset": 5495868,
      "componentType": 5126,
      "count": 34897,
      "type": "VEC3"
    },
    {
      "bufferView": 1,
      "byteOffset": 1692368,
      "componentType": 5126,
      "count": 34897,
      "type": "VEC2"
    },
    {
      "bufferView": 0,
      "byteOffset": 1095348,
      "componentType": 5125,
      "count": 48102,
      "type": "SCALAR"
    },
    {
      "bufferView": 2,
      "byteOffset": 5914632,
      "componentType": 5126,
      "count": 36276,
      "max": [
        14.772661209106445,
        12.697891235351563,
        13.637065887451172
      ],
      "min": [
        -15.217000007629395,
        -17.291770935058594,
        -6.69934606552124
      ],
      "type": "VEC3"
    },
    {
      "bufferView": 2,
      "byteOffset": 6349944,
      "componentType": 5126,
      "count": 36276,
      "type": "VEC3"
    },
    {
      "bufferView": 1,
      "byteOffset": 1971544,
      "componentType": 5126,
      "count": 36276,
      "type": "VEC2"
    },
    {
      "bufferView": 0,
      "byteOffset": 1287756,
      "componentType": 5125,
      "count": 54876,
      "type": "SCALAR"
    },
    {
      "bufferView": 2,
      "byteOffset": 6785256,
      "componentType": 5126,
      "count": 31723,
      "max": [
        16.08979606628418,
        15.535106658935547,
        6.51138162612915
      ],
      "min": [
        -13.899862289428711,
        -14.454551696777344,
        -6.710061550140381
      ],
      "type": "VEC3"
    },
    {
      "bufferView": 2,
      "byteOffset": 7165932,
      "componentType": 5126,
      "count": 31723,
      "type": "VEC3"
    },
    {
      "bufferView": 1,
      "byteOffset": 2261752,
      "componentType": 5126,
      "count": 31723,
      "type": "VEC2"
    },
    {
      "bufferView": 0,
      "byteOffset": 1507260,
      "componentType": 5125,
      "count": 42294,
      "type": "SCALAR"
    }
  ],
  "asset": {
    "generator": "fab-model-conversion",
    "version": "2.0"
  },
  "bufferViews": [
    {
      "buffer": 0,
      "byteLength": 1676436,
      "target": 34963
    },
    {
      "buffer": 0,
      "byteLength": 2515536,
      "byteOffset": 1676436,
      "byteStride": 8,
      "target": 34962
    },
    {
      "buffer": 0,
      "byteLength": 7546608,
      "byteOffset": 4191972,
      "byteStride": 12,
      "target": 34962
    }
  ],
  "buffers": [
    {
      "byteLength": 11738580,
      "uri": "scene.bin"
    }
  ],
  "images": [
    {
      "uri": "textures/Material.005_baseColor.png"
    },
    {
      "uri": "textures/Material.005_baseColor.png"
    },
    {
      "uri": "textures/Material.005_baseColor.png"
    },
    {
      "uri": "textures/Material.005_baseColor.png"
    },
    {
      "uri": "textures/Material.005_baseColor.png"
    },
    {
      "uri": "textures/Material.005_baseColor.png"
    },
    {
      "uri": "textures/Material.005_baseColor.png"
    }
  ],
  "materials": [
    {
      "doubleSided": true,
      "name": "Material.005",
      "pbrMetallicRoughness": {
        "baseColorTexture": {
          "index": 0
        },
        "metallicFactor": 0.0,
        "roughnessFactor": 0.4
      }
    },
    {
      "doubleSided": true,
      "name": "Material.003",
      "pbrMetallicRoughness": {
        "baseColorTexture": {
          "index": 0
        },
        "metallicFactor": 0.0,
        "roughnessFactor": 0.4
      }
    },
    {
      "doubleSided": true,
      "name": "Material.002",
      "pbrMetallicRoughness": {
        "baseColorTexture": {
          "index": 0
        },
        "metallicFactor": 0.0,
        "roughnessFactor": 0.4
      }
    },
    {
      "doubleSided": true,
      "name": "Material.016",
      "pbrMetallicRoughness": {
        "baseColorTexture": {
          "index": 0
        },
        "metallicFactor": 0.0,
        "roughnessFactor": 0.4
      }
    },
    {
      "doubleSided": true,
      "name": "base",
      "pbrMetallicRoughness": {
        "baseColorTexture": {
          "index": 0
        },
        "metallicFactor": 0.0,
        "roughnessFactor": 0.4
      }
    },
    {
      "doubleSided": true,
      "name": "Material.007",
      "pbrMetallicRoughness": {
        "baseColorTexture": {
          "index": 0
        },
        "metallicFactor": 0.0,
        "roughnessFactor": 0.4
      }
    },
    {
      "doubleSided": true,
      "name": "Material.010",
      "pbrMetallicRoughness": {
        "baseColorTexture": {
          "index": 0
        },
        "metallicFactor": 0.0,
        "roughnessFactor": 0.4
      }
    }
  ],
  "meshes": [
    {
      "name": "Cube.004_Material.005_0",
      "primitives": [
        {
          "attributes": {
            "NORMAL": 1,
            "POSITION": 0,
            "TEXCOORD_0": 2
          },
          "indices": 3,
          "material": 0,
          "mode": 4
        }
      ]
    },
    {
      "name": "Cylinder.031_Material.003_0",
      "primitives": [
        {
          "attributes": {
            "NORMAL": 5,
            "POSITION": 4,
            "TEXCOORD_0": 6
          },
          "indices": 7,
          "material": 1,
          "mode": 4
        }
      ]
    },
    {
      "name": "Cube.009_Material.002_0",
      "primitives": [
        {
          "attributes": {
            "NORMAL": 9,
            "POSITION": 8,
            "TEXCOORD_0": 10
          },
          "indices": 11,
          "material": 2,
          "mode": 4
        }
      ]
    },
    {
      "name": "Cube.009_Material.002_0",
      "primitives": [
        {
          "attributes": {
            "NORMAL": 13,
            "POSITION": 12,
            "TEXCOORD_0": 14
          },
          "indices": 15,
          "material": 2,
          "mode": 4
        }
      ]
    },
    {
      "name": "Cube.005_Material.016_0",
      "primitives": [
        {
          "attributes": {
            "NORMAL": 17,
            "POSITION": 16,
            "TEXCOORD_0": 18
          },
          "indices": 19,
          "material": 3,
          "mode": 4
        }
      ]
    },
    {
      "name": "BezierCircle.010_base_0",
      "primitives": [
        {
          "attributes": {
            "NORMAL": 21,
            "POSITION": 20,
            "TEXCOORD_0": 22
          },
          "indices": 23,
          "material": 4,
          "mode": 4
        }
      ]
    },
    {
      "name": "Cube.010_Material.007_0",
      "primitives": [
        {
          "attributes": {
            "NORMAL": 25,
            "POSITION": 24,
            "TEXCOORD_0": 26
          },
          "indices": 27,
          "material": 5,
          "mode": 4
        }
      ]
    },
    {
      "name": "Cube.001_Material.010_0",
      "primitives": [
        {
          "attributes": {
            "NORMAL": 29,
            "POSITION": 28,
            "TEXCOORD_0": 30
          },
          "indices": 31,
          "material": 6,
          "mode": 4
        }
      ]
    }
  ],
  "nodes": [
    {
      "children": [
        1
      ],
      "matrix": [
        1.0,
        0.0,
        0.0,
        0.0,
        0.0,
        2.220446049250313e-16,
        -1.0,
        0.0,
        0.0,
        1.0,
        2.220446049250313e-16,
        0.0,
        0.0,
        0.0,
        0.0,
        1.0
      ],
      "name": "Sketchfab_model"
    },
    {
      "children": [
        2
      ],
      "matrix": [
        0.009999999776482582,
        0.0,
        0.0,
        0.0,
        0.0,
        0.0,
        0.009999999776482582,
        0.0,
        0.0,
        -0.009999999776482582,
        0.0,
        0.0,
        0.0,
        0.0,
        0.0,
        1.0
      ],
      "name": "efb2d17536a849ac925abc8a702a60bd.fbx"
    },
    {
      "children": [
        3,
        5,
        7,
        10,
        12,
        14,
        16
      ],
      "name": "RootNode"
    },
    {
      "children": [
        4
      ],
      "matrix": [
        1000.0,
        0.0,
        0.0,
        0.0,
        0.0,
        -0.0001629206793918314,
        -999.9999999999868,
        0.0,
        0.0,
        999.9999999999868,
        -0.0001629206793918314,
        0.0,
        39927.0,
        8156.43115234375,
        -386.0722351074219,
        1.0
      ],
      "name": "Cube.004"
    },
    {
      "mesh": 0,
      "name": "Cube.004_Material.005_0"
    },
    {
      "children": [
        6
      ],
      "matrix": [
        1000.0,
        0.0,
        0.0,
        0.0,
        -0.0,
        -0.0001629206793918314,
        -999.9999999999868,
        0.0,
        0.0,
        999.9999999999868,
        -0.0001629206793918314,
        0.0,
        -23275.1015625,
        4006.563232421875,
        -38133.62109375,
        1.0
      ],
      "name": "Cylinder.031"
    },
    {
      "mesh": 1,
      "name": "Cylinder.031_Material.003_0"
    },
    {
      "children": [
        8,
        9
      ],
      "matrix": [
        1000.0,
        0.0,
        0.0,
        0.0,
        0.0,
        -0.0001629206793918314,
        -999.9999999999868,
        0.0,
        0.0,
        999.9999999999868,
        -0.0001629206793918314,
        0.0,
        71.13398742675781,
        2550.5205078125,
        2543.015625,
        1.0
      ],
      "name": "Cube.009"
    },
    {
      "mesh": 2,
      "name": "Cube.009_Material.002_0"
    },
    {
      "mesh": 3,
      "name": "Cube.009_Material.002_0"
    },
    {
      "children": [
        11
      ],
      "matrix": [
        1000.0,
        0.0,
        0.0,
        0.0,
        -0.0,
        -0.0001629206793918314,
        -999.9999999999868,
        0.0,
        0.0,
        999.9999999999868,
        -0.0001629206793918314,
        0.0,
        -39841.8359375,
        3025.719482421875,
        -162.61021423339844,
        1.0
      ],
      "name": "Cube.005"
    },
    {
      "mesh": 4,
      "name": "Cube.005_Material.016_0"
    },
    {
      "children": [
        13
      ],
      "matrix": [
        1000.0,
        0.0,
        0.0,
        0.0,
        -0.0,
        -0.0001629206793918314,
        -999.9999999999868,
        0.0,
        0.0,
        999.9999999999868,
        -0.0001629206793918314,
        0.0,
        -23168.630859375,
        2319.763671875,
        39213.04296875,
        1.0
      ],
      "name": "BezierCircle.010"
    },
    {
      "mesh": 5,
      "name": "BezierCircle.010_base_0"
    },
    {
      "children": [
        15
      ],
      "matrix": [
        1000.0,
        0.0,
        0.0,
        0.0,
        0.0,
        -0.0001629206793918314,
        -999.9999999999868,
        0.0,
        0.0,
        999.9999999999868,
        -0.0001629206793918314,
        0.0,
        23327.07421875,
        4810.85693359375,
        -42786.78125,
        1.0
      ],
      "name": "Cube.010"
    },
    {
      "mesh": 6,
      "name": "Cube.010_Material.007_0"
    },
    {
      "children": [
        17
      ],
      "matrix": [
        1000.0,
        0.0,
        0.0,
        0.0,
        0.0,
        -0.0001629206793918314,
        -999.9999999999868,
        0.0,
        0.0,
        999.9999999999868,
        -0.0001629206793918314,
        0.0,
        21921.685546875,
        4821.572265625,
        40706.1328125,
        1.0
      ],
      "name": "Cube.001"
    },
    {
      "mesh": 7,
      "name": "Cube.001_Material.010_0"
    }
  ],
  "samplers": [
    {
      "magFilter": 9729,
      "minFilter": 9987,
      "wrapS": 10497,
      "wrapT": 10497
    }
  ],
  "scene": 0,
  "scenes": [
    {
      "name": "Sketchfab_Scene",
      "nodes": [
        0
      ]
    }
  ],
  "textures": [
    {
      "sampler": 0,
      "source": 0
    },
    {
      "sampler": 0,
      "source": 0
    },
    {
      "sampler": 0,
      "source": 0
    },
    {
      "sampler": 0,
      "source": 0
    },
    {
      "sampler": 0,
      "source": 0
    },
    {
      "sampler": 0,
      "source": 0
    },
    {
      "sampler": 0,
      "source": 0
    }
  ]
}
