{
	"asset":{
		"generator":"Khronos glTF Blender I/O v4.4.56",
		"version":"2.0"
	},
	"scene":0,
	"scenes":[
		{
			"name":"Scene",
			"nodes":[
				0
			]
		}
	],
	"nodes":[
		{
			"mesh":0,
			"name":"Mesh_0"
		}
	],
	"materials":[
		{
			"doubleSided":true,
			"name":"Material_0",
			"pbrMetallicRoughness":{
				"baseColorTexture":{
					"index":0
				},
				"metallicFactor":0,
				"roughnessFactor":0.800000011920929
			}
		}
	],
	"meshes":[
		{
			"name":"Mesh_0",
			"primitives":[
				{
					"attributes":{
						"POSITION":0,
						"NORMAL":1,
						"TEXCOORD_0":2
					},
					"indices":3,
					"material":0
				}
			]
		}
	],
	"textures":[
		{
			"sampler":0,
			"source":0
		}
	],
	"images":[
		{
			"mimeType":"image/jpeg",
			"name":"Image_0",
			"uri":"texture/Image_0.jpg"
		}
	],
	"accessors":[
		{
			"bufferView":0,
			"componentType":5126,
			"count":41393,
			"max":[
				0.12287800014019012,
				0.9982280135154724,
				0.5030859708786011
			],
			"min":[
				-0.12334500253200531,
				-1.002269983291626,
				-0.5031669735908508
			],
			"type":"VEC3"
		},
		{
			"bufferView":1,
			"componentType":5126,
			"count":41393,
			"type":"VEC3"
		},
		{
			"bufferView":2,
			"componentType":5126,
			"count":41393,
			"type":"VEC2"
		},
		{
			"bufferView":3,
			"componentType":5123,
			"count":201696,
			"type":"SCALAR"
		}
	],
	"bufferViews":[
		{
			"buffer":0,
			"byteLength":496716,
			"byteOffset":0,
			"target":34962
		},
		{
			"buffer":0,
			"byteLength":496716,
			"byteOffset":496716,
			"target":34962
		},
		{
			"buffer":0,
			"byteLength":331144,
			"byteOffset":993432,
			"target":34962
		},
		{
			"buffer":0,
			"byteLength":403392,
			"byteOffset":1324576,
			"target":34963
		}
	],
	"samplers":[
		{
			"magFilter":9729,
			"minFilter":9987
		}
	],
	"buffers":[
		{
			"byteLength":1727968,
			"uri":"scene.bin"
		}
	]
}
