{
  "accessors": [
    {
      "bufferView": 2,
      "componentType": 5126,
      "count": 2818,
      "max": [
        1.930173397064209,
        -0.001472541131079197,
        1.9301749467849731
      ],
      "min": [
        -1.9301761388778687,
        -23.064332962036133,
        -1.9301749467849731
      ],
      "type": "VEC3"
    },
    {
      "bufferView": 2,
      "byteOffset": 33816,
      "componentType": 5126,
      "count": 2818,
      "max": [
        0.9999856948852539,
        1.0,
        0.9999857544898987
      ],
      "min": [
        -0.9999856948852539,
        -1.0,
        -0.9999856948852539
      ],
      "type": "VEC3"
    },
    {
      "bufferView": 1,
      "componentType": 5126,
      "count": 2818,
      "max": [
        0.0,
        0.0
      ],
      "min": [
        0.0,
        0.0
      ],
      "type": "VEC2"
    },
    {
      "bufferView": 0,
      "componentType": 5125,
      "count": 16896,
      "type": "SCALAR"
    },
    {
      "bufferView": 2,
      "byteOffset": 67632,
      "componentType": 5126,
      "count": 8897,
      "max": [
        1.2395514249801636,
        27.475635528564453,
        12.356861114501953
      ],
      "min": [
        -1.3590036630630493,
        -0.40985581278800964,
        -12.356861114501953
      ],
      "type": "VEC3"
    },
    {
      "bufferView": 2,
      "byteOffset": 174396,
      "componentType": 5126,
      "count": 8897,
      "max": [
        1.0,
        1.0,
        1.0
      ],
      "min": [
        -1.0,
        -1.0,
        -1.0
      ],
      "type": "VEC3"
    },
    {
      "bufferView": 1,
      "byteOffset": 22544,
      "componentType": 5126,
      "count": 8897,
      "max": [
        0.0,
        0.0
      ],
      "min": [
        0.0,
        0.0
      ],
      "type": "VEC2"
    },
    {
      "bufferView": 0,
      "byteOffset": 67584,
      "componentType": 5125,
      "count": 52992,
      "type": "SCALAR"
    },
    {
      "bufferView": 2,
      "byteOffset": 281160,
      "componentType": 5126,
      "count": 512,
      "max": [
        -0.09290925413370132,
        26.548709869384766,
        11.42993450164795
      ],
      "min": [
        -0.09291098266839981,
        3.6888375282287598,
        -11.42993450164795
      ],
      "type": "VEC3"
    },
    {
      "bufferView": 2,
      "byteOffset": 287304,
      "componentType": 5126,
      "count": 512,
      "max": [
        -1.0,
        8.681536201038398e-08,
        2.38708786071129e-08
      ],
      "min": [
        -1.0,
        6.492021498161193e-08,
        -2.3870960319527512e-08
      ],
      "type": "VEC3"
    },
    {
      "bufferView": 1,
      "byteOffset": 93720,
      "componentType": 5126,
      "count": 512,
      "max": [
        0.0,
        0.0
      ],
      "min": [
        0.0,
        0.0
      ],
      "type": "VEC2"
    },
    {
      "bufferView": 0,
      "byteOffset": 279552,
      "componentType": 5125,
      "count": 768,
      "type": "SCALAR"
    }
  ],
  "asset": {
    "extras": {
      "author": "Janice Emmons 1990-present (https://sketchfab.com/JaniceEmmons1990)",
      "license": "CC-BY-4.0 (http://creativecommons.org/licenses/by/4.0/)",
      "source": "https://sketchfab.com/3d-models/sheerluck-holmess-magnifying-glass-af92a4ffab1042499057fc439ecfba3c",
      "title": "Sheerluck Holmes's Magnifying Glass"
    },
    "generator": "Sketchfab-15.53.0",
    "version": "2.0"
  },
  "bufferViews": [
    {
      "buffer": 0,
      "byteLength": 282624,
      "name": "floatBufferViews",
      "target": 34963
    },
    {
      "buffer": 0,
      "byteLength": 97816,
      "byteOffset": 282624,
      "byteStride": 8,
      "name": "floatBufferViews",
      "target": 34962
    },
    {
      "buffer": 0,
      "byteLength": 293448,
      "byteOffset": 380440,
      "byteStride": 12,
      "name": "floatBufferViews",
      "target": 34962
    }
  ],
  "buffers": [
    {
      "byteLength": 673888,
      "uri": "scene.bin"
    }
  ],
  "materials": [
    {
      "doubleSided": true,
      "name": "Material.003",
      "pbrMetallicRoughness": {
        "baseColorFactor": [
          0.0684191,
          0.0202371,
          0.00921979,
          1.0
        ],
        "metallicFactor": 0.0,
        "roughnessFactor": 0.571942
      }
    },
    {
      "doubleSided": true,
      "name": "Material.002",
      "pbrMetallicRoughness": {
        "metallicFactor": 0.8640026331508819,
        "roughnessFactor": 0.7211420072899271
      }
    },
    {
      "alphaMode": "BLEND",
      "doubleSided": true,
      "name": "Material.007",
      "pbrMetallicRoughness": {
        "baseColorFactor": [
          1.0,
          1.0,
          1.0,
          0.2544769660250393
        ],
        "metallicFactor": 0.0
      }
    }
  ],
  "meshes": [
    {
      "name": "Object_0",
      "primitives": [
        {
          "attributes": {
            "NORMAL": 1,
            "POSITION": 0,
            "TEXCOORD_0": 2
          },
          "indices": 3,
          "material": 0,
          "mode": 4
        }
      ]
    },
    {
      "name": "Object_1",
      "primitives": [
        {
          "attributes": {
            "NORMAL": 5,
            "POSITION": 4,
            "TEXCOORD_0": 6
          },
          "indices": 7,
          "material": 1,
          "mode": 4
        }
      ]
    },
    {
      "name": "Object_2",
      "primitives": [
        {
          "attributes": {
            "NORMAL": 9,
            "POSITION": 8,
            "TEXCOORD_0": 10
          },
          "indices": 11,
          "material": 2,
          "mode": 4
        }
      ]
    }
  ],
  "nodes": [
    {
      "children": [
        1
      ],
      "matrix": [
        1.0,
        0.0,
        0.0,
        0.0,
        0.0,
        2.220446049250313e-16,
        -1.0,
        0.0,
        0.0,
        1.0,
        2.220446049250313e-16,
        0.0,
        0.0,
        0.0,
        0.0,
        1.0
      ],
      "name": "Sketchfab_model"
    },
    {
      "children": [
        2
      ],
      "name": "root"
    },
    {
      "children": [
        3
      ],
      "matrix": [
        1.0,
        0.0,
        0.0,
        0.0,
        0.0,
        2.220446049250313e-16,
        1.0,
        0.0,
        0.0,
        -1.0,
        2.220446049250313e-16,
        0.0,
        0.0,
        0.0,
        0.0,
        1.0
      ],
      "name": "GLTF_SceneRootNode"
    },
    {
      "children": [
        4,
        5,
        6
      ],
      "matrix": [
        1.7220438261613258e-08,
        -0.20429094135761192,
        -0.0,
        0.0,
        0.20429094135761192,
        1.7220438261613258e-08,
        0.0,
        0.0,
        0.0,
        0.0,
        0.2042909413576126,
        0.0,
        -1.230329990386963,
        0.06374145299196243,
        0.0,
        1.0
      ],
      "name": "Circle.006_6"
    },
    {
      "mesh": 0,
      "name": "Object_4"
    },
    {
      "mesh": 1,
      "name": "Object_5"
    },
    {
      "mesh": 2,
      "name": "Object_6"
    }
  ],
  "scene": 0,
  "scenes": [
    {
      "name": "Sketchfab_Scene",
      "nodes": [
        0
      ]
    }
  ]
}
