{
	"asset":{
		"generator":"Khronos glTF Blender I/O v4.4.56",
		"version":"2.0"
	},
	"scene":0,
	"scenes":[
		{
			"name":"Scene",
			"nodes":[
				0
			]
		}
	],
	"nodes":[
		{
			"mesh":0,
			"name":"Mesh_0"
		}
	],
	"materials":[
		{
			"doubleSided":true,
			"name":"Material_0",
			"pbrMetallicRoughness":{
				"baseColorTexture":{
					"index":0
				},
				"metallicFactor":0,
				"roughnessFactor":0.800000011920929
			}
		}
	],
	"meshes":[
		{
			"name":"Mesh_0",
			"primitives":[
				{
					"attributes":{
						"POSITION":0,
						"NORMAL":1,
						"TEXCOORD_0":2
					},
					"indices":3,
					"material":0
				}
			]
		}
	],
	"textures":[
		{
			"sampler":0,
			"source":0
		}
	],
	"images":[
		{
			"mimeType":"image/jpeg",
			"name":"Image_0",
			"uri":"textures/Image_0.jpg"
		}
	],
	"accessors":[
		{
			"bufferView":0,
			"componentType":5126,
			"count":8808,
			"max":[
				0.9998430013656616,
				0.6025789976119995,
				0.1347309947013855
			],
			"min":[
				-1.000789999961853,
				-0.5996950268745422,
				-0.1342329978942871
			],
			"type":"VEC3"
		},
		{
			"bufferView":1,
			"componentType":5126,
			"count":8808,
			"type":"VEC3"
		},
		{
			"bufferView":2,
			"componentType":5126,
			"count":8808,
			"type":"VEC2"
		},
		{
			"bufferView":3,
			"componentType":5123,
			"count":30000,
			"type":"SCALAR"
		}
	],
	"bufferViews":[
		{
			"buffer":0,
			"byteLength":105696,
			"byteOffset":0,
			"target":34962
		},
		{
			"buffer":0,
			"byteLength":105696,
			"byteOffset":105696,
			"target":34962
		},
		{
			"buffer":0,
			"byteLength":70464,
			"byteOffset":211392,
			"target":34962
		},
		{
			"buffer":0,
			"byteLength":60000,
			"byteOffset":281856,
			"target":34963
		}
	],
	"samplers":[
		{
			"magFilter":9729,
			"minFilter":9987
		}
	],
	"buffers":[
		{
			"byteLength":341856,
			"uri":"UNI.bin"
		}
	]
}
